<?xml version="1.0" encoding="utf-8"?>
<svg version="1.1" xmlns="http://www.w3.org/2000/svg" viewBox="0 0 1200 1200">
	<path translate="500 500" fill="black" stroke="black" d="M26 601q0 -33 6 -74l151 -38l2 -6q14 -49 38 -93l3 -5l-80 -134q45 -59 105 -105l133 81l5 -3q45 -26 94 -39l5 -2l38 -151q40 -5 74 -5q27 0 74 5l38 151l6 2q46 13 93 39l5 3l134 -81q56 44 104 105l-80 134l3 5q24 44 39 93l1 6l152 38q5 40 5 74q0 28 -5 73l-152 38 l-1 6q-16 51 -39 93l-3 5l80 134q-44 58 -104 105l-134 -81l-5 3q-45 25 -93 39l-6 1l-38 152q-40 5 -74 5q-27 0 -74 -5l-38 -152l-5 -1q-50 -14 -94 -39l-5 -3l-133 81q-59 -47 -105 -105l80 -134l-3 -5q-25 -47 -38 -93l-2 -6l-151 -38q-6 -48 -6 -73zM385 601 q0 88 63 151t152 63t152 -63t63 -151q0 -89 -63 -152t-152 -63t-152 63t-63 152z">
		<animateTransform attributeName="transform" attributeType="XML" type="rotate" from="0 600 600" to="360 600 600" begin="0s" dur="3.6s" repeatCount="indefinite"/>
	</path>
</svg>